# WaveFront *.obj file (generated by Autodesk ATF)

mtllib TestFlaskBig.mtl

g Solid1

v -45.000000 0.000000 0.000000
v -43.692384 110.000000 -10.769205
v -43.692384 110.000000 10.769205
v -39.845521 0.000000 -20.912542
v -39.845521 0.000000 20.912542
v -38.735530 10.000000 -9.547451
v -38.735530 10.000000 9.547451
v -38.735530 110.000000 -9.547451
v -38.735530 110.000000 9.547451
v -33.682983 110.000000 -29.840519
v -33.682983 110.000000 29.840519
v -29.861686 10.000000 -26.455145
v -29.861686 10.000000 26.455145
v -29.861686 110.000000 -26.455145
v -29.861686 110.000000 26.455145
v -25.562913 0.000000 -37.034273
v -25.562913 0.000000 37.034273
v -15.957220 110.000000 -42.075729
v -15.957220 110.000000 42.075729
v -14.146891 10.000000 -37.302287
v -14.146891 10.000000 37.302287
v -14.146891 110.000000 -37.302287
v -14.146891 110.000000 37.302287
v -5.424151 0.000000 -44.671898
v -5.424151 0.000000 44.671898
v 4.808787 10.000000 -39.603922
v 4.808787 10.000000 39.603922
v 4.808787 110.000000 -39.603922
v 4.808787 110.000000 39.603922
v 5.424151 110.000000 -44.671898
v 5.424151 110.000000 44.671898
v 15.957220 0.000000 -42.075729
v 15.957220 0.000000 42.075729
v 22.662830 10.000000 -32.832778
v 22.662830 10.000000 32.832778
v 22.662830 110.000000 -32.832778
v 22.662830 110.000000 32.832778
v 25.562913 110.000000 -37.034273
v 25.562913 110.000000 37.034273
v 33.682983 0.000000 -29.840519
v 33.682983 0.000000 29.840519
v 35.325091 10.000000 -18.540038
v 35.325091 10.000000 18.540038
v 35.325091 110.000000 -18.540038
v 35.325091 110.000000 18.540038
v 39.845521 110.000000 -20.912542
v 39.845521 110.000000 20.912542
v 39.894800 10.000000 0.000000
v 39.894800 110.000000 0.000000
v 43.692384 0.000000 -10.769205
v 43.692384 0.000000 10.769205
v 45.000000 110.000000 0.000000
vt 10.000000 -12.533321 0.000000
vt 10.000000 -10.605118 0.000000
vt 10.000000 -8.676914 0.000000
vt 10.000000 -6.748711 0.000000
vt 10.000000 -4.820508 0.000000
vt 10.000000 -2.892305 0.000000
vt 10.000000 -0.964102 0.000000
vt 10.000000 0.964102 0.000000
vt 10.000000 2.892305 0.000000
vt 10.000000 4.820508 0.000000
vt 10.000000 6.748711 0.000000
vt 10.000000 8.676914 0.000000
vt 10.000000 10.605118 0.000000
vt 0.000000 12.533321 0.000000
vt 0.000000 10.605118 0.000000
vt 0.000000 8.676914 0.000000
vt 0.000000 6.748711 0.000000
vt 0.000000 4.820508 0.000000
vt 0.000000 2.892305 0.000000
vt 0.000000 0.964102 0.000000
vt 0.000000 -0.964102 0.000000
vt 0.000000 -2.892305 0.000000
vt 0.000000 -4.820508 0.000000
vt 0.000000 -6.748711 0.000000
vt 0.000000 -8.676914 0.000000
vt 0.000000 -10.605118 0.000000
vt 0.000000 -12.533321 0.000000
vt 10.000000 12.533321 0.000000
vt 0.000000 4.500000 0.000000
vt -2.091254 3.984552 0.000000
vt -3.703427 2.556291 0.000000
vt -4.467190 0.542415 0.000000
vt -4.207573 -1.595722 0.000000
vt -2.984052 -3.368298 0.000000
vt -1.076921 -4.369238 0.000000
vt 1.076921 -4.369238 0.000000
vt 2.984052 -3.368298 0.000000
vt 4.207573 -1.595722 0.000000
vt 4.467190 0.542415 0.000000
vt 3.703427 2.556291 0.000000
vt 2.091254 3.984552 0.000000
vt 0.000000 3.989480 0.000000
vt 1.854004 3.532509 0.000000
vt 3.283278 2.266283 0.000000
vt 3.960392 0.480879 0.000000
vt 3.730229 -1.414689 0.000000
vt 2.645514 -2.986169 0.000000
vt 0.954745 -3.873553 0.000000
vt -0.954745 -3.873553 0.000000
vt -2.645514 -2.986169 0.000000
vt -3.730229 -1.414689 0.000000
vt -3.960392 0.480879 0.000000
vt -3.283278 2.266283 0.000000
vt -1.854004 3.532509 0.000000
vt -11.000000 14.137167 0.000000
vt -11.000000 11.962217 0.000000
vt -11.000000 9.787270 0.000000
vt -11.000000 7.612320 0.000000
vt -11.000000 5.437372 0.000000
vt -11.000000 3.262423 0.000000
vt -11.000000 1.087474 0.000000
vt -11.000000 -1.087474 0.000000
vt -11.000000 -3.262423 0.000000
vt -11.000000 -5.437372 0.000000
vt -11.000000 -7.612320 0.000000
vt -11.000000 -9.787270 0.000000
vt -11.000000 -11.962217 0.000000
vt -0.000000 0.000000 0.000000
vt -0.000000 2.174949 0.000000
vt -0.000000 4.349897 0.000000
vt -0.000000 6.524846 0.000000
vt -0.000000 8.699795 0.000000
vt -0.000000 10.874744 0.000000
vt -0.000000 -15.224641 0.000000
vt -0.000000 -13.049692 0.000000
vt -0.000000 -10.874744 0.000000
vt -0.000000 -8.699795 0.000000
vt -0.000000 -6.524846 0.000000
vt -0.000000 -4.349897 0.000000
vt -0.000000 -2.174949 0.000000
vt -0.000000 13.049694 0.000000
vt -11.000000 -14.137167 0.000000
vt -11.000000 -14.137167 0.000000
vt -0.000000 13.049694 0.000000
vt 0.000000 3.989480 0.000000
vt -1.854004 3.532509 0.000000
vt -3.283278 2.266283 0.000000
vt -3.960392 0.480879 0.000000
vt -3.730229 -1.414689 0.000000
vt -2.645514 -2.986169 0.000000
vt -0.954745 -3.873553 0.000000
vt 0.954745 -3.873553 0.000000
vt 2.645514 -2.986169 0.000000
vt 3.730229 -1.414689 0.000000
vt 3.960392 0.480879 0.000000
vt 3.283278 2.266283 0.000000
vt 1.854004 3.532509 0.000000
vt -0.000000 -4.500000 0.000000
vt 2.091254 -3.984552 0.000000
vt 3.703427 -2.556291 0.000000
vt 4.467190 -0.542415 0.000000
vt 4.207573 1.595722 0.000000
vt 2.984052 3.368298 0.000000
vt 1.076921 4.369238 0.000000
vt -1.076921 4.369238 0.000000
vt -2.984052 3.368298 0.000000
vt -4.207573 1.595722 0.000000
vt -4.467190 -0.542415 0.000000
vt -3.703427 -2.556291 0.000000
vt -2.091254 -3.984552 0.000000
vn -0.100000 0.000000 0.000000
vn -0.088546 0.000000 0.046472
vn -0.056806 0.000000 0.082298
vn -0.012054 0.000000 0.099271
vn 0.035460 0.000000 0.093502
vn 0.074851 0.000000 0.066312
vn 0.097094 0.000000 0.023932
vn 0.097094 0.000000 -0.023932
vn 0.074851 0.000000 -0.066312
vn 0.035460 0.000000 -0.093502
vn -0.012054 0.000000 -0.099271
vn -0.056806 0.000000 -0.082298
vn -0.088546 0.000000 -0.046472
vn -0.100000 0.000000 0.000000
vn -0.088546 0.000000 -0.046472
vn -0.056806 0.000000 -0.082298
vn -0.012054 0.000000 -0.099271
vn 0.035460 0.000000 -0.093502
vn 0.074851 0.000000 -0.066312
vn 0.097094 0.000000 -0.023932
vn 0.097094 0.000000 0.023932
vn 0.074851 0.000000 0.066312
vn 0.035460 0.000000 0.093502
vn -0.012054 0.000000 0.099271
vn -0.056806 0.000000 0.082298
vn -0.088546 0.000000 0.046472
vn -0.100000 0.000000 0.000000
vn -0.100000 0.000000 0.000000
vn 0.000000 0.100000 0.000000
vn 0.000000 0.100000 0.000000
vn 0.000000 0.100000 0.000000
vn 0.000000 0.100000 0.000000
vn 0.000000 0.100000 0.000000
vn 0.000000 0.100000 0.000000
vn 0.000000 0.100000 0.000000
vn 0.000000 0.100000 0.000000
vn 0.000000 0.100000 0.000000
vn 0.000000 0.100000 0.000000
vn 0.000000 0.100000 0.000000
vn 0.000000 0.100000 0.000000
vn 0.000000 0.100000 0.000000
vn 0.000000 0.100000 0.000000
vn 0.000000 0.100000 0.000000
vn 0.000000 0.100000 0.000000
vn 0.000000 0.100000 0.000000
vn 0.000000 0.100000 0.000000
vn 0.000000 0.100000 0.000000
vn 0.000000 0.100000 0.000000
vn 0.000000 0.100000 0.000000
vn 0.000000 0.100000 0.000000
vn 0.000000 0.100000 0.000000
vn 0.000000 0.100000 0.000000
vn 0.000000 0.100000 0.000000
vn 0.000000 0.100000 0.000000
vn 0.100000 0.000000 0.000000
vn 0.088546 0.000000 0.046472
vn 0.056806 0.000000 0.082298
vn 0.012054 0.000000 0.099271
vn -0.035460 0.000000 0.093502
vn -0.074851 0.000000 0.066312
vn -0.097094 0.000000 0.023932
vn -0.097094 0.000000 -0.023932
vn -0.074851 0.000000 -0.066312
vn -0.035460 0.000000 -0.093502
vn 0.012054 0.000000 -0.099271
vn 0.056806 0.000000 -0.082298
vn 0.088546 0.000000 -0.046472
vn -0.100000 0.000000 0.000000
vn -0.088546 0.000000 0.046472
vn -0.056806 0.000000 0.082298
vn -0.012054 0.000000 0.099271
vn 0.035460 0.000000 0.093502
vn 0.074851 0.000000 0.066312
vn 0.097094 0.000000 0.023932
vn 0.097094 0.000000 -0.023932
vn 0.074851 0.000000 -0.066312
vn 0.035460 0.000000 -0.093502
vn -0.012054 0.000000 -0.099271
vn -0.056806 0.000000 -0.082298
vn -0.088546 0.000000 -0.046472
vn 0.097094 0.000000 0.023932
vn 0.100000 0.000000 0.000000
vn 0.100000 0.000000 0.000000
vn 0.097094 0.000000 0.023932
vn 0.000000 0.100000 0.000000
vn 0.000000 0.100000 0.000000
vn 0.000000 0.100000 0.000000
vn 0.000000 0.100000 0.000000
vn 0.000000 0.100000 0.000000
vn 0.000000 0.100000 0.000000
vn 0.000000 0.100000 0.000000
vn 0.000000 0.100000 0.000000
vn 0.000000 0.100000 0.000000
vn 0.000000 0.100000 0.000000
vn 0.000000 0.100000 0.000000
vn 0.000000 0.100000 0.000000
vn 0.000000 0.100000 0.000000
vn 0.000000 -0.100000 0.000000
vn 0.000000 -0.100000 0.000000
vn 0.000000 -0.100000 0.000000
vn 0.000000 -0.100000 0.000000
vn 0.000000 -0.100000 0.000000
vn 0.000000 -0.100000 0.000000
vn 0.000000 -0.100000 0.000000
vn 0.000000 -0.100000 0.000000
vn 0.000000 -0.100000 0.000000
vn 0.000000 -0.100000 0.000000
vn 0.000000 -0.100000 0.000000
vn 0.000000 -0.100000 0.000000
vn 0.000000 -0.100000 0.000000
usemtl 191,191,191
f 44/2/2 42/26/26 49/1/1
f 49/1/1 42/26/26 48/27/27
f 49/28/28 48/14/14 45/13/13
f 45/13/13 48/14/14 43/15/15
f 45/13/13 43/15/15 35/16/16
f 44/2/2 36/3/3 42/26/26
f 42/26/26 36/3/3 34/25/25
f 34/25/25 36/3/3 28/4/4
f 34/25/25 28/4/4 26/24/24
f 26/24/24 28/4/4 22/5/5
f 26/24/24 22/5/5 20/23/23
f 20/23/23 22/5/5 14/6/6
f 20/23/23 14/6/6 12/22/22
f 12/22/22 14/6/6 8/7/7
f 12/22/22 8/7/7 6/21/21
f 6/21/21 8/7/7 9/8/8
f 6/21/21 9/8/8 7/20/20
f 7/20/20 9/8/8 15/9/9
f 7/20/20 15/9/9 13/19/19
f 13/19/19 15/9/9 23/10/10
f 13/19/19 23/10/10 21/18/18
f 21/18/18 23/10/10 29/11/11
f 21/18/18 29/11/11 27/17/17
f 27/17/17 29/11/11 37/12/12
f 27/17/17 37/12/12 35/16/16
f 35/16/16 37/12/12 45/13/13
f 47/41/41 52/29/29 49/42/42
f 49/42/42 52/29/29 46/30/30
f 49/42/42 46/30/30 44/54/54
f 44/54/54 46/30/30 38/31/31
f 44/54/54 38/31/31 36/53/53
f 36/53/53 38/31/31 30/32/32
f 36/53/53 30/32/32 28/52/52
f 28/52/52 30/32/32 22/51/51
f 22/51/51 30/32/32 18/33/33
f 22/51/51 18/33/33 14/50/50
f 14/50/50 18/33/33 10/34/34
f 14/50/50 10/34/34 8/49/49
f 8/49/49 10/34/34 2/35/35
f 8/49/49 2/35/35 3/36/36
f 8/49/49 3/36/36 9/48/48
f 9/48/48 3/36/36 11/37/37
f 9/48/48 11/37/37 15/47/47
f 15/47/47 11/37/37 19/38/38
f 15/47/47 19/38/38 23/46/46
f 23/46/46 19/38/38 31/39/39
f 23/46/46 31/39/39 29/45/45
f 29/45/45 31/39/39 37/44/44
f 37/44/44 31/39/39 39/40/40
f 37/44/44 39/40/40 45/43/43
f 45/43/43 39/40/40 47/41/41
f 45/43/43 47/41/41 49/42/42
f 47/56/56 51/81/81 52/55/55
f 52/82/82 51/74/74 50/75/75
f 52/83/83 50/75/75 46/67/67
f 46/67/67 50/75/75 40/76/76
f 46/67/67 40/76/76 38/66/66
f 38/66/66 40/76/76 32/77/77
f 38/66/66 32/77/77 30/65/65
f 30/65/65 32/77/77 24/78/78
f 30/65/65 24/78/78 18/64/64
f 18/64/64 24/78/78 16/79/79
f 18/64/64 16/79/79 10/63/63
f 10/63/63 16/79/79 4/80/80
f 10/63/63 4/80/80 2/62/62
f 2/62/62 4/80/80 1/68/68
f 2/62/62 1/68/68 3/61/61
f 3/61/61 1/68/68 5/69/69
f 3/61/61 5/69/69 11/60/60
f 11/60/60 5/69/69 17/70/70
f 11/60/60 17/70/70 19/59/59
f 19/59/59 17/70/70 25/71/71
f 19/59/59 25/71/71 31/58/58
f 31/58/58 25/71/71 33/72/72
f 31/58/58 33/72/72 39/57/57
f 39/57/57 33/72/72 41/73/73
f 39/57/57 41/73/73 47/56/56
f 47/56/56 41/73/73 51/84/84
f 48/85/85 42/86/86 43/97/97
f 43/97/97 42/86/86 35/96/96
f 35/96/96 42/86/86 34/87/87
f 35/96/96 34/87/87 27/95/95
f 27/95/95 34/87/87 26/88/88
f 27/95/95 26/88/88 21/94/94
f 21/94/94 26/88/88 20/89/89
f 21/94/94 20/89/89 13/93/93
f 13/93/93 20/89/89 12/90/90
f 13/93/93 12/90/90 7/92/92
f 7/92/92 12/90/90 6/91/91
f 1/98/98 4/99/99 5/110/110
f 5/110/110 4/99/99 17/109/109
f 17/109/109 4/99/99 16/100/100
f 17/109/109 16/100/100 25/108/108
f 25/108/108 16/100/100 24/101/101
f 25/108/108 24/101/101 33/107/107
f 33/107/107 24/101/101 32/102/102
f 33/107/107 32/102/102 41/106/106
f 41/106/106 32/102/102 40/103/103
f 41/106/106 40/103/103 51/105/105
f 51/105/105 40/103/103 50/104/104

# 52 vertices
# 110 texture params
# 110 normals
# 100 facets

# 1 groups
